<?xml version="1.0" encoding="utf-8"?><!DOCTYPE svg PUBLIC "-//W3C//DTD SVG 1.1//EN" "http://www.w3.org/Graphics/SVG/1.1/DTD/svg11.dtd"><svg xmlns="http://www.w3.org/2000/svg" viewBox="0 0 23 23" shape-rendering="crispEdges"><path fill="#FFFFFF" d="M0 0h23v23H0z"/><path stroke="#ff0000" d="M1 1.5h7m3 0h1m3 0h7M1 2.5h1m5 0h1m2 0h3m2 0h1m5 0h1M1 3.5h1m1 0h3m1 0h1m1 0h3m3 0h1m1 0h3m1 0h1M1 4.5h1m1 0h3m1 0h1m1 0h3m3 0h1m1 0h3m1 0h1M1 5.5h1m1 0h3m1 0h1m1 0h2m2 0h1m1 0h1m1 0h3m1 0h1M1 6.5h1m5 0h1m1 0h2m1 0h1m2 0h1m5 0h1M1 7.5h7m1 0h1m1 0h1m1 0h1m1 0h7M9 8.5h1m1 0h1M1 9.5h1m1 0h5m3 0h2m2 0h5M1 10.5h1m2 0h1m1 0h1m2 0h11m1 0h1M1 11.5h5m1 0h2m4 0h3m2 0h3M1 12.5h1m3 0h2m2 0h6m2 0h3M3 13.5h2m1 0h6m1 0h3m5 0h1M9 14.5h2m2 0h1m3 0h2M1 15.5h7m4 0h1m2 0h1m3 0h2M1 16.5h1m5 0h1m1 0h1m4 0h1m1 0h1m1 0h4M1 17.5h1m1 0h3m1 0h1m1 0h2m1 0h1m2 0h2m4 0h1M1 18.5h1m1 0h3m1 0h1m1 0h2m2 0h6M1 19.5h1m1 0h3m1 0h1m1 0h1m3 0h1m2 0h1m2 0h1M1 20.5h1m5 0h1m2 0h2m1 0h2m2 0h3M1 21.5h7m1 0h1m2 0h2m1 0h1m1 0h1m2 0h1"/></svg>
